# xmcd
#
# Track frame offsets:
# 150
# 12525
# 31995
# 45034
# 61432
# 73313
# 87942
# 91202
# 101695
# 124772
#
# Disc length: 1827 seconds
#
# Revision: 0
# Processed by: cddbd v1.5.1PL2 Copyright (c) Steve Scherf et al.
# Submitted via: Audion 3.0.2 (http://www.panic.com/audion/)
#
DISCID=7e07210a
DTITLE=Abraxxas - Breadwinner
DYEAR=1900
DGENRE=
TTITLE0=Alef
TTITLE1=Belsey Comes Home
TTITLE2=He
TTITLE3=Bet
TTITLE4=Vav
TTITLE5=Zayen
TTITLE6=Gimel
TTITLE7=Het
TTITLE8=Dalet
TTITLE9=Tet
EXTD=
EXTT0=
EXTT1=
EXTT2=
EXTT3=
EXTT4=
EXTT5=
EXTT6=
EXTT7=
EXTT8=
EXTT9=
PLAYORDER=
